<svg fill="none" height="512" viewBox="0 0 25 24" width="512" xmlns="http://www.w3.org/2000/svg"><g clip-rule="evenodd" fill="rgb(0,0,0)" fill-rule="evenodd"><path d="m5.5 2c-1.65685 0-3 1.34315-3 3v1.5c0 1.65685 1.34315 3 3 3h3.5c1.6569 0 3-1.34315 3-3v-1.5c0-1.65685-1.3431-3-3-3z"/><path d="m5.5 10.5c-1.65685 0-3 1.3431-3 3v5.5c0 1.6569 1.34315 3 3 3h3.5c1.6569 0 3-1.3431 3-3v-5.5c0-1.6569-1.3431-3-3-3z"/><path d="m13 5c0-1.65685 1.3431-3 3-3h3.5c1.6569 0 3 1.34315 3 3v5.5c0 1.6569-1.3431 3-3 3h-3.5c-1.6569 0-3-1.3431-3-3z"/><path d="m16 14.5c-1.6569 0-3 1.8431-3 3.5v1c0 1.6569 1.3431 3 3 3h3.5c1.6569 0 3-1.3431 3-3v-1.5c0-1.6569-1.3431-3-3-3z"/></g></svg>