<svg id="Capa_1" enable-background="new 0 0 512 512" height="512" viewBox="0 0 512 512" width="512" xmlns="http://www.w3.org/2000/svg"><g><path d="m0 365.908h68.238c1.14-24.069 7.341-46.81 17.55-67.196l-63.218-38.057c-14.499 32.105-22.57 67.736-22.57 105.253z"/><path d="m296.206 113.059-13.23 99.098c25.586 7.347 48.673 20.591 67.696 38.175l77.377-73.991c-36.066-32.752-81.519-55.342-131.843-63.282z"/><path d="m36.539 234.048 65.018 39.141c14.301-19.101 32.563-35.063 53.571-46.668l-49.086-68.096c-27.947 20.233-51.646 45.966-69.503 75.623z"/><path d="m449.042 197.776-78.219 74.796c19.803 26.201 32.125 58.371 33.782 93.336h107.395c0-64.353-23.751-123.155-62.958-168.132z"/><path d="m253.467 206.482 12.863-96.349c-3.428-.136-6.869-.225-10.33-.225-45.247 0-87.743 11.755-124.627 32.353l51.861 71.946c16.719-5.562 34.6-8.581 53.188-8.581 5.754 0 11.439.292 17.045.856z"/><path d="m209.981 356.073c0 25.416 20.603 46.019 46.019 46.019s46.019-20.603 46.019-46.019-46.019-142.987-46.019-142.987-46.019 117.572-46.019 142.987z"/></g></svg>